<?xml version="1.0" encoding="UTF-8"?>
<svg xmlns="http://www.w3.org/2000/svg" viewBox="0 0 1700 1000" font-family="-apple-system, BlinkMacSystemFont, 'Apple SD Gothic Neo', 'Malgun Gothic', system-ui, sans-serif">
  <defs>
    <marker id="connector" markerWidth="8" markerHeight="8" refX="4" refY="4" orient="auto">
      <circle cx="4" cy="4" r="2" fill="#94A3B8" />
    </marker>
  </defs>

  <!-- background -->
  <rect width="1700" height="1000" fill="#FAFAFA" />

  <!-- 제목 -->
  <text x="60" y="50" font-size="28" font-weight="800" fill="#0F172A">WBS · 사업전략팀 OKR 대시보드</text>
  <text x="60" y="78" font-size="14" font-weight="500" fill="#64748B">Work Breakdown Structure · 7 영역 · 33 작업 · 모두 완료</text>

  <!-- ──────────────────────────────────────────────
       LEVEL 0 : Project Root
       ────────────────────────────────────────────── -->
  <rect x="710" y="110" width="280" height="70" rx="10" fill="#0F172A" />
  <text x="850" y="142" font-size="13" font-weight="700" fill="#84CC16" text-anchor="middle" letter-spacing="2">PROJECT</text>
  <text x="850" y="166" font-size="18" font-weight="800" fill="#FFFFFF" text-anchor="middle">OKR 대시보드</text>

  <!-- root → lane 연결 -->
  <line x1="850" y1="180" x2="850" y2="210" stroke="#94A3B8" stroke-width="1.5" />
  <line x1="202" y1="210" x2="1498" y2="210" stroke="#94A3B8" stroke-width="1.5" />
  <line x1="202" y1="210" x2="202" y2="240" stroke="#94A3B8" stroke-width="1.5" />
  <line x1="418" y1="210" x2="418" y2="240" stroke="#94A3B8" stroke-width="1.5" />
  <line x1="634" y1="210" x2="634" y2="240" stroke="#94A3B8" stroke-width="1.5" />
  <line x1="850" y1="210" x2="850" y2="240" stroke="#94A3B8" stroke-width="1.5" />
  <line x1="1066" y1="210" x2="1066" y2="240" stroke="#94A3B8" stroke-width="1.5" />
  <line x1="1282" y1="210" x2="1282" y2="240" stroke="#94A3B8" stroke-width="1.5" />
  <line x1="1498" y1="210" x2="1498" y2="240" stroke="#94A3B8" stroke-width="1.5" />

  <!-- ──────────────────────────────────────────────
       LEVEL 1 : 7 영역
       ────────────────────────────────────────────── -->

  <!-- 1. 기획 & 문서화 — 보라 #8B5CF6 -->
  <rect x="102" y="240" width="200" height="80" rx="10" fill="#8B5CF6" />
  <text x="202" y="266" font-size="11" font-weight="700" fill="#EDE9FE" text-anchor="middle" letter-spacing="2">1.0</text>
  <text x="202" y="288" font-size="15" font-weight="800" fill="#FFFFFF" text-anchor="middle">기획 &amp; 문서화</text>
  <text x="202" y="307" font-size="11" font-weight="500" fill="#EDE9FE" text-anchor="middle">5 docs</text>

  <!-- 2. 디자인 시스템 — 분홍 #EC4899 -->
  <rect x="318" y="240" width="200" height="80" rx="10" fill="#EC4899" />
  <text x="418" y="266" font-size="11" font-weight="700" fill="#FCE7F3" text-anchor="middle" letter-spacing="2">2.0</text>
  <text x="418" y="288" font-size="15" font-weight="800" fill="#FFFFFF" text-anchor="middle">디자인 시스템</text>
  <text x="418" y="307" font-size="11" font-weight="500" fill="#FCE7F3" text-anchor="middle">5 작업</text>

  <!-- 3. 인프라 & 백엔드 — 파랑 #3B82F6 -->
  <rect x="534" y="240" width="200" height="80" rx="10" fill="#3B82F6" />
  <text x="634" y="266" font-size="11" font-weight="700" fill="#DBEAFE" text-anchor="middle" letter-spacing="2">3.0</text>
  <text x="634" y="288" font-size="15" font-weight="800" fill="#FFFFFF" text-anchor="middle">인프라 &amp; 백엔드</text>
  <text x="634" y="307" font-size="11" font-weight="500" fill="#DBEAFE" text-anchor="middle">5 작업</text>

  <!-- 4. 프론트엔드 — 라임 #84CC16 -->
  <rect x="750" y="240" width="200" height="80" rx="10" fill="#84CC16" />
  <text x="850" y="266" font-size="11" font-weight="700" fill="#365314" text-anchor="middle" letter-spacing="2">4.0</text>
  <text x="850" y="288" font-size="15" font-weight="800" fill="#1A2E05" text-anchor="middle">프론트엔드 개발</text>
  <text x="850" y="307" font-size="11" font-weight="600" fill="#365314" text-anchor="middle">6 작업</text>

  <!-- 5. 콘텐츠 & 데이터 — 주황 #F59E0B -->
  <rect x="966" y="240" width="200" height="80" rx="10" fill="#F59E0B" />
  <text x="1066" y="266" font-size="11" font-weight="700" fill="#FEF3C7" text-anchor="middle" letter-spacing="2">5.0</text>
  <text x="1066" y="288" font-size="15" font-weight="800" fill="#FFFFFF" text-anchor="middle">콘텐츠 &amp; 데이터</text>
  <text x="1066" y="307" font-size="11" font-weight="500" fill="#FEF3C7" text-anchor="middle">3 작업</text>

  <!-- 6. 배포 & 운영 — 청록 #14B8A6 -->
  <rect x="1182" y="240" width="200" height="80" rx="10" fill="#14B8A6" />
  <text x="1282" y="266" font-size="11" font-weight="700" fill="#CCFBF1" text-anchor="middle" letter-spacing="2">6.0</text>
  <text x="1282" y="288" font-size="15" font-weight="800" fill="#FFFFFF" text-anchor="middle">배포 &amp; 운영</text>
  <text x="1282" y="307" font-size="11" font-weight="500" fill="#CCFBF1" text-anchor="middle">4 작업</text>

  <!-- 7. 품질 & 보고서 — 회색 #64748B -->
  <rect x="1398" y="240" width="200" height="80" rx="10" fill="#64748B" />
  <text x="1498" y="266" font-size="11" font-weight="700" fill="#E2E8F0" text-anchor="middle" letter-spacing="2">7.0</text>
  <text x="1498" y="288" font-size="15" font-weight="800" fill="#FFFFFF" text-anchor="middle">품질 &amp; 보고서</text>
  <text x="1498" y="307" font-size="11" font-weight="500" fill="#E2E8F0" text-anchor="middle">6 작업</text>

  <!-- Lv1 → Lv2 세로 연결선 -->
  <line x1="202" y1="320" x2="202" y2="350" stroke="#CBD5E1" stroke-width="1.5" />
  <line x1="418" y1="320" x2="418" y2="350" stroke="#CBD5E1" stroke-width="1.5" />
  <line x1="634" y1="320" x2="634" y2="350" stroke="#CBD5E1" stroke-width="1.5" />
  <line x1="850" y1="320" x2="850" y2="350" stroke="#CBD5E1" stroke-width="1.5" />
  <line x1="1066" y1="320" x2="1066" y2="350" stroke="#CBD5E1" stroke-width="1.5" />
  <line x1="1282" y1="320" x2="1282" y2="350" stroke="#CBD5E1" stroke-width="1.5" />
  <line x1="1498" y1="320" x2="1498" y2="350" stroke="#CBD5E1" stroke-width="1.5" />

  <!-- ──────────────────────────────────────────────
       LEVEL 2 : 세부 작업 (각 Lane 아래 세로 스택)
       ────────────────────────────────────────────── -->

  <!-- ── 1.0 기획 & 문서화 ── -->
  <g font-size="11" font-weight="600">
    <rect x="102" y="350" width="200" height="46" rx="6" fill="#FFFFFF" stroke="#E5E7EB" />
    <rect x="102" y="350" width="4" height="46" fill="#8B5CF6" />
    <text x="116" y="370" fill="#64748B" font-size="9">1.1</text>
    <text x="116" y="385" fill="#0F172A">PRD · 제품 요구사항</text>
    <text x="288" y="380" fill="#84CC16" text-anchor="end" font-size="13">✓</text>

    <rect x="102" y="402" width="200" height="46" rx="6" fill="#FFFFFF" stroke="#E5E7EB" />
    <rect x="102" y="402" width="4" height="46" fill="#8B5CF6" />
    <text x="116" y="422" fill="#64748B" font-size="9">1.2</text>
    <text x="116" y="437" fill="#0F172A">IA · 정보 구조</text>
    <text x="288" y="432" fill="#84CC16" text-anchor="end" font-size="13">✓</text>

    <rect x="102" y="454" width="200" height="46" rx="6" fill="#FFFFFF" stroke="#E5E7EB" />
    <rect x="102" y="454" width="4" height="46" fill="#8B5CF6" />
    <text x="116" y="474" fill="#64748B" font-size="9">1.3</text>
    <text x="116" y="489" fill="#0F172A">Workflow · 사용자 흐름</text>
    <text x="288" y="484" fill="#84CC16" text-anchor="end" font-size="13">✓</text>

    <rect x="102" y="506" width="200" height="46" rx="6" fill="#FFFFFF" stroke="#E5E7EB" />
    <rect x="102" y="506" width="4" height="46" fill="#8B5CF6" />
    <text x="116" y="526" fill="#64748B" font-size="9">1.4</text>
    <text x="116" y="541" fill="#0F172A">TRD · 기술 요구사항</text>
    <text x="288" y="536" fill="#84CC16" text-anchor="end" font-size="13">✓</text>

    <rect x="102" y="558" width="200" height="46" rx="6" fill="#FFFFFF" stroke="#E5E7EB" />
    <rect x="102" y="558" width="4" height="46" fill="#8B5CF6" />
    <text x="116" y="578" fill="#64748B" font-size="9">1.5</text>
    <text x="116" y="593" fill="#0F172A">Design System 명세</text>
    <text x="288" y="588" fill="#84CC16" text-anchor="end" font-size="13">✓</text>
  </g>

  <!-- ── 2.0 디자인 시스템 ── -->
  <g font-size="11" font-weight="600">
    <rect x="318" y="350" width="200" height="46" rx="6" fill="#FFFFFF" stroke="#E5E7EB" />
    <rect x="318" y="350" width="4" height="46" fill="#EC4899" />
    <text x="332" y="370" fill="#64748B" font-size="9">2.1</text>
    <text x="332" y="385" fill="#0F172A">컬러·타이포 토큰</text>
    <text x="504" y="380" fill="#84CC16" text-anchor="end" font-size="13">✓</text>

    <rect x="318" y="402" width="200" height="46" rx="6" fill="#FFFFFF" stroke="#E5E7EB" />
    <rect x="318" y="402" width="4" height="46" fill="#EC4899" />
    <text x="332" y="422" fill="#64748B" font-size="9">2.2</text>
    <text x="332" y="437" fill="#0F172A">컴포넌트 비주얼 명세</text>
    <text x="504" y="432" fill="#84CC16" text-anchor="end" font-size="13">✓</text>

    <rect x="318" y="454" width="200" height="46" rx="6" fill="#FFFFFF" stroke="#E5E7EB" />
    <rect x="318" y="454" width="4" height="46" fill="#EC4899" />
    <text x="332" y="474" fill="#64748B" font-size="9">2.3</text>
    <text x="332" y="489" fill="#0F172A">라임-블랙 톤앤매너</text>
    <text x="504" y="484" fill="#84CC16" text-anchor="end" font-size="13">✓</text>

    <rect x="318" y="506" width="200" height="46" rx="6" fill="#FFFFFF" stroke="#E5E7EB" />
    <rect x="318" y="506" width="4" height="46" fill="#EC4899" />
    <text x="332" y="526" fill="#64748B" font-size="9">2.4</text>
    <text x="332" y="541" fill="#0F172A">PDF 라이트 매핑</text>
    <text x="504" y="536" fill="#84CC16" text-anchor="end" font-size="13">✓</text>

    <rect x="318" y="558" width="200" height="46" rx="6" fill="#FFFFFF" stroke="#E5E7EB" />
    <rect x="318" y="558" width="4" height="46" fill="#EC4899" />
    <text x="332" y="578" fill="#64748B" font-size="9">2.5</text>
    <text x="332" y="593" fill="#0F172A">아이콘·신호등 체계</text>
    <text x="504" y="588" fill="#84CC16" text-anchor="end" font-size="13">✓</text>
  </g>

  <!-- ── 3.0 인프라 & 백엔드 ── -->
  <g font-size="11" font-weight="600">
    <rect x="534" y="350" width="200" height="46" rx="6" fill="#FFFFFF" stroke="#E5E7EB" />
    <rect x="534" y="350" width="4" height="46" fill="#3B82F6" />
    <text x="548" y="370" fill="#64748B" font-size="9">3.1</text>
    <text x="548" y="385" fill="#0F172A">Next.js 14 App Router</text>
    <text x="720" y="380" fill="#84CC16" text-anchor="end" font-size="13">✓</text>

    <rect x="534" y="402" width="200" height="46" rx="6" fill="#FFFFFF" stroke="#E5E7EB" />
    <rect x="534" y="402" width="4" height="46" fill="#3B82F6" />
    <text x="548" y="422" fill="#64748B" font-size="9">3.2</text>
    <text x="548" y="437" fill="#0F172A">Upstash Redis 연동</text>
    <text x="720" y="432" fill="#84CC16" text-anchor="end" font-size="13">✓</text>

    <rect x="534" y="454" width="200" height="46" rx="6" fill="#FFFFFF" stroke="#E5E7EB" />
    <rect x="534" y="454" width="4" height="46" fill="#3B82F6" />
    <text x="548" y="474" fill="#64748B" font-size="9">3.3</text>
    <text x="548" y="489" fill="#0F172A">Server Actions (14종)</text>
    <text x="720" y="484" fill="#84CC16" text-anchor="end" font-size="13">✓</text>

    <rect x="534" y="506" width="200" height="46" rx="6" fill="#FFFFFF" stroke="#E5E7EB" />
    <rect x="534" y="506" width="4" height="46" fill="#3B82F6" />
    <text x="548" y="526" fill="#64748B" font-size="9">3.4</text>
    <text x="548" y="541" fill="#0F172A">데이터 모델 정의</text>
    <text x="720" y="536" fill="#84CC16" text-anchor="end" font-size="13">✓</text>

    <rect x="534" y="558" width="200" height="46" rx="6" fill="#FFFFFF" stroke="#E5E7EB" />
    <rect x="534" y="558" width="4" height="46" fill="#3B82F6" />
    <text x="548" y="578" fill="#64748B" font-size="9">3.5</text>
    <text x="548" y="593" fill="#0F172A">자동 계산 로직 (calc)</text>
    <text x="720" y="588" fill="#84CC16" text-anchor="end" font-size="13">✓</text>
  </g>

  <!-- ── 4.0 프론트엔드 개발 ── -->
  <g font-size="11" font-weight="600">
    <rect x="750" y="350" width="200" height="46" rx="6" fill="#FFFFFF" stroke="#E5E7EB" />
    <rect x="750" y="350" width="4" height="46" fill="#84CC16" />
    <text x="764" y="370" fill="#64748B" font-size="9">4.1</text>
    <text x="764" y="385" fill="#0F172A">레이아웃 · GlobalHeader</text>
    <text x="936" y="380" fill="#84CC16" text-anchor="end" font-size="13">✓</text>

    <rect x="750" y="402" width="200" height="46" rx="6" fill="#FFFFFF" stroke="#E5E7EB" />
    <rect x="750" y="402" width="4" height="46" fill="#84CC16" />
    <text x="764" y="422" fill="#64748B" font-size="9">4.2</text>
    <text x="764" y="437" fill="#0F172A">Hero Summary (4카드)</text>
    <text x="936" y="432" fill="#84CC16" text-anchor="end" font-size="13">✓</text>

    <rect x="750" y="454" width="200" height="46" rx="6" fill="#FFFFFF" stroke="#E5E7EB" />
    <rect x="750" y="454" width="4" height="46" fill="#84CC16" />
    <text x="764" y="474" fill="#64748B" font-size="9">4.3</text>
    <text x="764" y="489" fill="#0F172A">OKR Tree · KR Card</text>
    <text x="936" y="484" fill="#84CC16" text-anchor="end" font-size="13">✓</text>

    <rect x="750" y="506" width="200" height="46" rx="6" fill="#FFFFFF" stroke="#E5E7EB" />
    <rect x="750" y="506" width="4" height="46" fill="#84CC16" />
    <text x="764" y="526" fill="#64748B" font-size="9">4.4</text>
    <text x="764" y="541" fill="#0F172A">점수표 · KPT 회고</text>
    <text x="936" y="536" fill="#84CC16" text-anchor="end" font-size="13">✓</text>

    <rect x="750" y="558" width="200" height="46" rx="6" fill="#FFFFFF" stroke="#E5E7EB" />
    <rect x="750" y="558" width="4" height="46" fill="#84CC16" />
    <text x="764" y="578" fill="#64748B" font-size="9">4.5</text>
    <text x="764" y="593" fill="#0F172A">모달 4종 (분기·멤버 등)</text>
    <text x="936" y="588" fill="#84CC16" text-anchor="end" font-size="13">✓</text>

    <rect x="750" y="610" width="200" height="46" rx="6" fill="#FFFFFF" stroke="#E5E7EB" />
    <rect x="750" y="610" width="4" height="46" fill="#84CC16" />
    <text x="764" y="630" fill="#64748B" font-size="9">4.6</text>
    <text x="764" y="645" fill="#0F172A">UI primitives (10종)</text>
    <text x="936" y="640" fill="#84CC16" text-anchor="end" font-size="13">✓</text>
  </g>

  <!-- ── 5.0 콘텐츠 & 데이터 ── -->
  <g font-size="11" font-weight="600">
    <rect x="966" y="350" width="200" height="46" rx="6" fill="#FFFFFF" stroke="#E5E7EB" />
    <rect x="966" y="350" width="4" height="46" fill="#F59E0B" />
    <text x="980" y="370" fill="#64748B" font-size="9">5.1</text>
    <text x="980" y="385" fill="#0F172A">26.Q2 샘플 데이터 (PDF)</text>
    <text x="1152" y="380" fill="#84CC16" text-anchor="end" font-size="13">✓</text>

    <rect x="966" y="402" width="200" height="46" rx="6" fill="#FFFFFF" stroke="#E5E7EB" />
    <rect x="966" y="402" width="4" height="46" fill="#F59E0B" />
    <text x="980" y="422" fill="#64748B" font-size="9">5.2</text>
    <text x="980" y="437" fill="#0F172A">Export / Import JSON</text>
    <text x="1152" y="432" fill="#84CC16" text-anchor="end" font-size="13">✓</text>

    <rect x="966" y="454" width="200" height="46" rx="6" fill="#FFFFFF" stroke="#E5E7EB" />
    <rect x="966" y="454" width="4" height="46" fill="#F59E0B" />
    <text x="980" y="474" fill="#64748B" font-size="9">5.3</text>
    <text x="980" y="489" fill="#0F172A">분기 점수표 자동 평가</text>
    <text x="1152" y="484" fill="#84CC16" text-anchor="end" font-size="13">✓</text>
  </g>

  <!-- ── 6.0 배포 & 운영 ── -->
  <g font-size="11" font-weight="600">
    <rect x="1182" y="350" width="200" height="46" rx="6" fill="#FFFFFF" stroke="#E5E7EB" />
    <rect x="1182" y="350" width="4" height="46" fill="#14B8A6" />
    <text x="1196" y="370" fill="#64748B" font-size="9">6.1</text>
    <text x="1196" y="385" fill="#0F172A">GitHub 저장소 · git push</text>
    <text x="1368" y="380" fill="#84CC16" text-anchor="end" font-size="13">✓</text>

    <rect x="1182" y="402" width="200" height="46" rx="6" fill="#FFFFFF" stroke="#E5E7EB" />
    <rect x="1182" y="402" width="4" height="46" fill="#14B8A6" />
    <text x="1196" y="422" fill="#64748B" font-size="9">6.2</text>
    <text x="1196" y="437" fill="#0F172A">Vercel 프로젝트 연결</text>
    <text x="1368" y="432" fill="#84CC16" text-anchor="end" font-size="13">✓</text>

    <rect x="1182" y="454" width="200" height="46" rx="6" fill="#FFFFFF" stroke="#E5E7EB" />
    <rect x="1182" y="454" width="4" height="46" fill="#14B8A6" />
    <text x="1196" y="474" fill="#64748B" font-size="9">6.3</text>
    <text x="1196" y="489" fill="#0F172A">환경변수 · Upstash 키</text>
    <text x="1368" y="484" fill="#84CC16" text-anchor="end" font-size="13">✓</text>

    <rect x="1182" y="506" width="200" height="46" rx="6" fill="#FFFFFF" stroke="#E5E7EB" />
    <rect x="1182" y="506" width="4" height="46" fill="#14B8A6" />
    <text x="1196" y="526" fill="#64748B" font-size="9">6.4</text>
    <text x="1196" y="541" fill="#0F172A">자동 CI/CD (push→deploy)</text>
    <text x="1368" y="536" fill="#84CC16" text-anchor="end" font-size="13">✓</text>
  </g>

  <!-- ── 7.0 품질 & 보고서 ── -->
  <g font-size="11" font-weight="600">
    <rect x="1398" y="350" width="200" height="46" rx="6" fill="#FFFFFF" stroke="#E5E7EB" />
    <rect x="1398" y="350" width="4" height="46" fill="#64748B" />
    <text x="1412" y="370" fill="#64748B" font-size="9">7.1</text>
    <text x="1412" y="385" fill="#0F172A">PDF 3페이지 압축</text>
    <text x="1584" y="380" fill="#84CC16" text-anchor="end" font-size="13">✓</text>

    <rect x="1398" y="402" width="200" height="46" rx="6" fill="#FFFFFF" stroke="#E5E7EB" />
    <rect x="1398" y="402" width="4" height="46" fill="#64748B" />
    <text x="1412" y="422" fill="#64748B" font-size="9">7.2</text>
    <text x="1412" y="437" fill="#0F172A">가독성 · WCAG 접근성</text>
    <text x="1584" y="432" fill="#84CC16" text-anchor="end" font-size="13">✓</text>

    <rect x="1398" y="454" width="200" height="46" rx="6" fill="#FFFFFF" stroke="#E5E7EB" />
    <rect x="1398" y="454" width="4" height="46" fill="#64748B" />
    <text x="1412" y="474" fill="#64748B" font-size="9">7.3</text>
    <text x="1412" y="489" fill="#0F172A">시각 잡음 정리 (Tufte)</text>
    <text x="1584" y="484" fill="#84CC16" text-anchor="end" font-size="13">✓</text>

    <rect x="1398" y="506" width="200" height="46" rx="6" fill="#FFFFFF" stroke="#E5E7EB" />
    <rect x="1398" y="506" width="4" height="46" fill="#64748B" />
    <text x="1412" y="526" fill="#64748B" font-size="9">7.4</text>
    <text x="1412" y="541" fill="#0F172A">폰트 강제 (고딕 sans)</text>
    <text x="1584" y="536" fill="#84CC16" text-anchor="end" font-size="13">✓</text>

    <rect x="1398" y="558" width="200" height="46" rx="6" fill="#FFFFFF" stroke="#E5E7EB" />
    <rect x="1398" y="558" width="4" height="46" fill="#64748B" />
    <text x="1412" y="578" fill="#64748B" font-size="9">7.5</text>
    <text x="1412" y="593" fill="#0F172A">헤더 시각 분리</text>
    <text x="1584" y="588" fill="#84CC16" text-anchor="end" font-size="13">✓</text>

    <rect x="1398" y="610" width="200" height="46" rx="6" fill="#FFFFFF" stroke="#E5E7EB" />
    <rect x="1398" y="610" width="4" height="46" fill="#64748B" />
    <text x="1412" y="630" fill="#64748B" font-size="9">7.6</text>
    <text x="1412" y="645" fill="#0F172A">위험 KR 알림 · 종합 배너</text>
    <text x="1584" y="640" fill="#84CC16" text-anchor="end" font-size="13">✓</text>
  </g>

  <!-- ──────────────────────────────────────────────
       하단 메타 · 범례 · 통계
       ────────────────────────────────────────────── -->

  <!-- 통계 박스 -->
  <rect x="60" y="730" width="1580" height="110" rx="10" fill="#FFFFFF" stroke="#E5E7EB" />
  <text x="80" y="758" font-size="13" font-weight="800" fill="#0F172A">프로젝트 통계</text>
  <line x1="60" y1="770" x2="1640" y2="770" stroke="#F1F5F9" />

  <!-- 통계 4개 -->
  <text x="80" y="800" font-size="11" font-weight="600" fill="#64748B" letter-spacing="1">총 작업 수</text>
  <text x="80" y="822" font-size="22" font-weight="800" fill="#0F172A">33</text>

  <text x="240" y="800" font-size="11" font-weight="600" fill="#64748B" letter-spacing="1">완료율</text>
  <text x="240" y="822" font-size="22" font-weight="800" fill="#84CC16">100%</text>

  <text x="400" y="800" font-size="11" font-weight="600" fill="#64748B" letter-spacing="1">산출물 파일 수</text>
  <text x="400" y="822" font-size="22" font-weight="800" fill="#0F172A">50+</text>

  <text x="600" y="800" font-size="11" font-weight="600" fill="#64748B" letter-spacing="1">배포 횟수</text>
  <text x="600" y="822" font-size="22" font-weight="800" fill="#0F172A">20</text>

  <text x="760" y="800" font-size="11" font-weight="600" fill="#64748B" letter-spacing="1">스택</text>
  <text x="760" y="822" font-size="14" font-weight="700" fill="#0F172A">Next.js 14 · TS · Tailwind</text>

  <text x="1080" y="800" font-size="11" font-weight="600" fill="#64748B" letter-spacing="1">저장소</text>
  <text x="1080" y="822" font-size="14" font-weight="700" fill="#0F172A">Upstash Redis</text>

  <text x="1320" y="800" font-size="11" font-weight="600" fill="#64748B" letter-spacing="1">호스팅</text>
  <text x="1320" y="822" font-size="14" font-weight="700" fill="#0F172A">Vercel (무료)</text>

  <!-- 범례 -->
  <rect x="60" y="870" width="1580" height="80" rx="10" fill="#FFFFFF" stroke="#E5E7EB" />
  <text x="80" y="897" font-size="13" font-weight="800" fill="#0F172A">범례</text>
  <line x1="60" y1="908" x2="1640" y2="908" stroke="#F1F5F9" />

  <!-- 영역 색상 표시 -->
  <rect x="80" y="922" width="14" height="14" rx="3" fill="#8B5CF6" />
  <text x="102" y="935" font-size="12" font-weight="500" fill="#64748B">1.0 기획</text>

  <rect x="190" y="922" width="14" height="14" rx="3" fill="#EC4899" />
  <text x="212" y="935" font-size="12" font-weight="500" fill="#64748B">2.0 디자인</text>

  <rect x="310" y="922" width="14" height="14" rx="3" fill="#3B82F6" />
  <text x="332" y="935" font-size="12" font-weight="500" fill="#64748B">3.0 인프라</text>

  <rect x="430" y="922" width="14" height="14" rx="3" fill="#84CC16" />
  <text x="452" y="935" font-size="12" font-weight="500" fill="#64748B">4.0 프론트엔드</text>

  <rect x="570" y="922" width="14" height="14" rx="3" fill="#F59E0B" />
  <text x="592" y="935" font-size="12" font-weight="500" fill="#64748B">5.0 콘텐츠</text>

  <rect x="690" y="922" width="14" height="14" rx="3" fill="#14B8A6" />
  <text x="712" y="935" font-size="12" font-weight="500" fill="#64748B">6.0 배포</text>

  <rect x="800" y="922" width="14" height="14" rx="3" fill="#64748B" />
  <text x="822" y="935" font-size="12" font-weight="500" fill="#64748B">7.0 품질</text>

  <!-- 상태 표시 -->
  <text x="1000" y="935" font-size="13" fill="#84CC16">✓</text>
  <text x="1018" y="935" font-size="12" font-weight="500" fill="#64748B">완료</text>

  <text x="1080" y="935" font-size="13" fill="#F59E0B">◐</text>
  <text x="1098" y="935" font-size="12" font-weight="500" fill="#64748B">진행 중</text>

  <text x="1170" y="935" font-size="13" fill="#94A3B8">○</text>
  <text x="1188" y="935" font-size="12" font-weight="500" fill="#64748B">미진행</text>

  <text x="1500" y="935" font-size="11" font-weight="500" fill="#94A3B8" text-anchor="end">생성일: 2026-05-22</text>
</svg>
