<?xml version="1.0" encoding="UTF-8"?>
<svg xmlns="http://www.w3.org/2000/svg" viewBox="0 0 1600 1080" font-family="-apple-system, BlinkMacSystemFont, 'Apple SD Gothic Neo', 'Malgun Gothic', system-ui, sans-serif">
  <!-- defs -->
  <defs>
    <marker id="arrow" markerWidth="12" markerHeight="12" refX="10" refY="3" orient="auto">
      <path d="M0,0 L0,6 L9,3 z" fill="#64748B" />
    </marker>
    <marker id="arrow-lime" markerWidth="12" markerHeight="12" refX="10" refY="3" orient="auto">
      <path d="M0,0 L0,6 L9,3 z" fill="#7AAA00" />
    </marker>
    <marker id="arrow-blue" markerWidth="12" markerHeight="12" refX="10" refY="3" orient="auto">
      <path d="M0,0 L0,6 L9,3 z" fill="#3B82F6" />
    </marker>
  </defs>

  <!-- background -->
  <rect width="1600" height="1080" fill="#FAFAFA" />

  <!-- 제목 -->
  <text x="60" y="56" font-size="28" font-weight="800" fill="#0F172A">사용자 워크플로우 — OKR 대시보드</text>
  <text x="60" y="84" font-size="14" font-weight="500" fill="#64748B">team-okr-dashboard.vercel.app</text>

  <!-- ════════════════════════════════════════════
       LANE 1 · 상사 (조회 + 보고)
       ════════════════════════════════════════════ -->
  <rect x="40" y="120" width="1520" height="180" rx="16" fill="#FFFFFF" stroke="#E5E7EB" />
  <rect x="40" y="120" width="180" height="180" rx="16" fill="#EFF6FF" stroke="#E5E7EB" />
  <text x="60" y="170" font-size="13" font-weight="700" fill="#3B82F6" letter-spacing="1">LANE 01</text>
  <text x="60" y="200" font-size="22" font-weight="800" fill="#0F172A">상사</text>
  <text x="60" y="226" font-size="14" font-weight="500" fill="#64748B">조회 · 보고 수신</text>
  <text x="60" y="262" font-size="12" font-weight="500" fill="#94A3B8">주 1~2회</text>

  <!-- 단계 1: URL 접속 -->
  <rect x="260" y="180" width="160" height="60" rx="10" fill="#FFFFFF" stroke="#CBD5E1" stroke-width="1.5" />
  <text x="340" y="208" font-size="13" font-weight="700" fill="#0F172A" text-anchor="middle">URL 접속</text>
  <text x="340" y="226" font-size="11" font-weight="500" fill="#64748B" text-anchor="middle">슬랙 링크 등</text>

  <!-- 화살표 -->
  <line x1="420" y1="210" x2="470" y2="210" stroke="#64748B" stroke-width="1.5" marker-end="url(#arrow)" />

  <!-- 단계 2: Hero 요약 -->
  <rect x="470" y="180" width="180" height="60" rx="10" fill="#FFFFFF" stroke="#CBD5E1" stroke-width="1.5" />
  <text x="560" y="205" font-size="13" font-weight="700" fill="#0F172A" text-anchor="middle">Hero 4카드 확인</text>
  <text x="560" y="222" font-size="11" font-weight="500" fill="#64748B" text-anchor="middle">진척도·달성·신뢰도</text>
  <text x="560" y="235" font-size="11" font-weight="500" fill="#64748B" text-anchor="middle">3초 내 인지</text>

  <line x1="650" y1="210" x2="700" y2="210" stroke="#64748B" stroke-width="1.5" marker-end="url(#arrow)" />

  <!-- 다이아몬드: 위험 KR 있나? -->
  <polygon points="780,160 880,210 780,260 680,210" fill="#FEF3C7" stroke="#F59E0B" stroke-width="1.5" />
  <text x="780" y="206" font-size="12" font-weight="700" fill="#92400E" text-anchor="middle">분기 종합 상태</text>
  <text x="780" y="222" font-size="11" font-weight="500" fill="#92400E" text-anchor="middle">배너 확인</text>

  <!-- 분기: 위험 -->
  <line x1="780" y1="260" x2="780" y2="290" stroke="#FF5A4A" stroke-width="1.5" marker-end="url(#arrow)" />
  <text x="795" y="282" font-size="11" font-weight="700" fill="#FF5A4A">위기</text>

  <rect x="690" y="290" width="180" height="34" rx="8" fill="#FEE2E2" stroke="#FF5A4A" stroke-width="1.5" />
  <text x="780" y="312" font-size="12" font-weight="700" fill="#7F1D1D" text-anchor="middle">위험 KR 스크롤 확인</text>

  <!-- 분기: 정상 -->
  <line x1="880" y1="210" x2="930" y2="210" stroke="#7AAA00" stroke-width="1.5" marker-end="url(#arrow-lime)" />

  <rect x="930" y="180" width="160" height="60" rx="10" fill="#ECFCCB" stroke="#84CC16" stroke-width="1.5" />
  <text x="1010" y="208" font-size="13" font-weight="700" fill="#365314" text-anchor="middle">분기 순항 인지</text>
  <text x="1010" y="226" font-size="11" font-weight="500" fill="#365314" text-anchor="middle">상세 탐독 불필요</text>

  <line x1="1090" y1="210" x2="1140" y2="210" stroke="#64748B" stroke-width="1.5" marker-end="url(#arrow)" />

  <!-- 단계 4: PDF 다운로드 -->
  <rect x="1140" y="180" width="170" height="60" rx="10" fill="#0F172A" stroke="#0F172A" />
  <text x="1225" y="207" font-size="13" font-weight="700" fill="#FFFFFF" text-anchor="middle">📄 PDF 다운로드</text>
  <text x="1225" y="224" font-size="11" font-weight="500" fill="#CBD5E1" text-anchor="middle">3페이지 보고서</text>

  <line x1="1310" y1="210" x2="1360" y2="210" stroke="#64748B" stroke-width="1.5" marker-end="url(#arrow)" />

  <rect x="1360" y="180" width="170" height="60" rx="10" fill="#FFFFFF" stroke="#CBD5E1" stroke-width="1.5" />
  <text x="1445" y="208" font-size="13" font-weight="700" fill="#0F172A" text-anchor="middle">상부 보고</text>
  <text x="1445" y="226" font-size="11" font-weight="500" fill="#64748B" text-anchor="middle">메일·인쇄</text>

  <!-- ════════════════════════════════════════════
       LANE 2 · 편집자 (매주 금요일 갱신)
       ════════════════════════════════════════════ -->
  <rect x="40" y="340" width="1520" height="280" rx="16" fill="#FFFFFF" stroke="#E5E7EB" />
  <rect x="40" y="340" width="180" height="280" rx="16" fill="#F7FEE7" stroke="#E5E7EB" />
  <text x="60" y="388" font-size="13" font-weight="700" fill="#7AAA00" letter-spacing="1">LANE 02</text>
  <text x="60" y="418" font-size="22" font-weight="800" fill="#0F172A">편집자</text>
  <text x="60" y="444" font-size="14" font-weight="500" fill="#64748B">매주 금요일 갱신</text>
  <text x="60" y="478" font-size="12" font-weight="500" fill="#94A3B8">@Benjamin @Ria</text>
  <text x="60" y="494" font-size="12" font-weight="500" fill="#94A3B8">@Que @Monica</text>
  <text x="60" y="528" font-size="11" font-weight="600" fill="#84CC16">3분 내 완료 목표</text>

  <!-- 단계 1 -->
  <rect x="260" y="400" width="150" height="56" rx="10" fill="#FFFFFF" stroke="#CBD5E1" stroke-width="1.5" />
  <text x="335" y="425" font-size="13" font-weight="700" fill="#0F172A" text-anchor="middle">매주 금요일</text>
  <text x="335" y="441" font-size="11" font-weight="500" fill="#64748B" text-anchor="middle">URL 접속</text>

  <line x1="410" y1="428" x2="450" y2="428" stroke="#7AAA00" stroke-width="1.5" marker-end="url(#arrow-lime)" />

  <!-- 단계 2: 갱신율 확인 -->
  <rect x="450" y="400" width="170" height="56" rx="10" fill="#FFFFFF" stroke="#CBD5E1" stroke-width="1.5" />
  <text x="535" y="425" font-size="13" font-weight="700" fill="#0F172A" text-anchor="middle">"갱신 N/M" 확인</text>
  <text x="535" y="441" font-size="11" font-weight="500" fill="#64748B" text-anchor="middle">본인 미갱신 인지</text>

  <line x1="620" y1="428" x2="660" y2="428" stroke="#7AAA00" stroke-width="1.5" marker-end="url(#arrow-lime)" />

  <!-- 단계 3: 본인 KR 찾기 -->
  <rect x="660" y="400" width="170" height="56" rx="10" fill="#FFFFFF" stroke="#CBD5E1" stroke-width="1.5" />
  <text x="745" y="425" font-size="13" font-weight="700" fill="#0F172A" text-anchor="middle">본인 KR 카드 찾기</text>
  <text x="745" y="441" font-size="11" font-weight="500" fill="#64748B" text-anchor="middle">Owner 칩 스캔</text>

  <line x1="830" y1="428" x2="870" y2="428" stroke="#7AAA00" stroke-width="1.5" marker-end="url(#arrow-lime)" />

  <!-- 단계 4: 카드 클릭 → 편집 모드 -->
  <rect x="870" y="400" width="170" height="56" rx="10" fill="#FFFFFF" stroke="#CBD5E1" stroke-width="1.5" />
  <text x="955" y="425" font-size="13" font-weight="700" fill="#0F172A" text-anchor="middle">카드 클릭 → 편집</text>
  <text x="955" y="441" font-size="11" font-weight="500" fill="#64748B" text-anchor="middle">인라인 폼 진입</text>

  <line x1="1040" y1="428" x2="1080" y2="428" stroke="#7AAA00" stroke-width="1.5" marker-end="url(#arrow-lime)" />

  <!-- 단계 5: 입력 -->
  <rect x="1080" y="380" width="220" height="100" rx="10" fill="#F7FEE7" stroke="#84CC16" stroke-width="1.5" />
  <text x="1190" y="406" font-size="13" font-weight="700" fill="#0F172A" text-anchor="middle">데이터 입력</text>
  <text x="1100" y="428" font-size="11" font-weight="500" fill="#0F172A">• 현재값 (숫자)</text>
  <text x="1100" y="444" font-size="11" font-weight="500" fill="#0F172A">• 현재값 상세 (메모)</text>
  <text x="1100" y="460" font-size="11" font-weight="500" fill="#0F172A">• 진척도 자동 계산</text>
  <text x="1100" y="476" font-size="11" font-weight="500" fill="#0F172A">• 신뢰도 (상/중/하)</text>

  <line x1="1300" y1="428" x2="1350" y2="428" stroke="#7AAA00" stroke-width="1.5" marker-end="url(#arrow-lime)" />

  <!-- 단계 6: 저장 -->
  <rect x="1350" y="400" width="170" height="56" rx="10" fill="#B4E600" stroke="#84CC16" stroke-width="2" />
  <text x="1435" y="425" font-size="13" font-weight="800" fill="#0F172A" text-anchor="middle">[ 저장 ]</text>
  <text x="1435" y="441" font-size="11" font-weight="600" fill="#365314" text-anchor="middle">Upstash에 즉시 반영</text>

  <!-- 화살표 아래로 (피드백 루프) -->
  <line x1="1435" y1="456" x2="1435" y2="500" stroke="#7AAA00" stroke-width="1.5" marker-end="url(#arrow-lime)" />

  <!-- 갱신 결과 -->
  <rect x="1280" y="500" width="240" height="50" rx="10" fill="#ECFCCB" stroke="#84CC16" stroke-width="1.5" />
  <text x="1400" y="522" font-size="12" font-weight="700" fill="#365314" text-anchor="middle">Hero·점수표 즉시 갱신</text>
  <text x="1400" y="538" font-size="10" font-weight="500" fill="#365314" text-anchor="middle">갱신일 자동 기록 · 토스트 표시</text>

  <!-- 다이아몬드: 다른 KR 남음? -->
  <polygon points="1170,525 1260,500 1170,475 1080,500" fill="#FEF3C7" stroke="#F59E0B" stroke-width="1.5" />
  <text x="1170" y="497" font-size="11" font-weight="700" fill="#92400E" text-anchor="middle">다른 KR</text>
  <text x="1170" y="511" font-size="11" font-weight="700" fill="#92400E" text-anchor="middle">남음?</text>

  <line x1="1280" y1="525" x2="1260" y2="525" stroke="#64748B" stroke-width="1.5" />

  <!-- Y: 다른 KR로 -->
  <path d="M 1080,500 L 950,500 L 950,470 L 870,470" fill="none" stroke="#7AAA00" stroke-width="1.5" marker-end="url(#arrow-lime)" stroke-dasharray="4 3" />
  <text x="990" y="492" font-size="11" font-weight="700" fill="#7AAA00">Yes → 3번으로</text>

  <!-- N: 종료 -->
  <line x1="1170" y1="475" x2="1170" y2="445" stroke="#64748B" stroke-width="1.5" marker-end="url(#arrow)" />
  <text x="1180" y="465" font-size="11" font-weight="700" fill="#64748B">No</text>

  <rect x="1085" y="555" width="170" height="46" rx="10" fill="#FFFFFF" stroke="#CBD5E1" stroke-width="1.5" />
  <text x="1170" y="582" font-size="13" font-weight="700" fill="#0F172A" text-anchor="middle">이번 주 갱신 완료</text>
  <line x1="1170" y1="555" x2="1170" y2="540" stroke="#64748B" stroke-width="1.5" />

  <!-- ════════════════════════════════════════════
       LANE 3 · 편집자 (분기 운영 — 새 분기/멤버/회고)
       ════════════════════════════════════════════ -->
  <rect x="40" y="660" width="1520" height="380" rx="16" fill="#FFFFFF" stroke="#E5E7EB" />
  <rect x="40" y="660" width="180" height="380" rx="16" fill="#F1F5F9" stroke="#E5E7EB" />
  <text x="60" y="708" font-size="13" font-weight="700" fill="#475569" letter-spacing="1">LANE 03</text>
  <text x="60" y="738" font-size="22" font-weight="800" fill="#0F172A">편집자</text>
  <text x="60" y="764" font-size="14" font-weight="500" fill="#64748B">분기 운영</text>
  <text x="60" y="798" font-size="12" font-weight="500" fill="#94A3B8">분기 시작/종료 시</text>

  <!-- ─── 3-A: 새 분기 시작 ─── -->
  <text x="260" y="700" font-size="13" font-weight="800" fill="#475569">A. 새 분기 시작 (분기 첫 주)</text>
  <line x1="260" y1="708" x2="1520" y2="708" stroke="#E5E7EB" stroke-width="1" stroke-dasharray="3 3" />

  <rect x="260" y="720" width="150" height="48" rx="8" fill="#FFFFFF" stroke="#CBD5E1" stroke-width="1.5" />
  <text x="335" y="749" font-size="12" font-weight="700" fill="#0F172A" text-anchor="middle">[+ 새 분기] 클릭</text>

  <line x1="410" y1="744" x2="450" y2="744" stroke="#64748B" stroke-width="1.5" marker-end="url(#arrow)" />

  <rect x="450" y="720" width="170" height="48" rx="8" fill="#FFFFFF" stroke="#CBD5E1" stroke-width="1.5" />
  <text x="535" y="743" font-size="12" font-weight="700" fill="#0F172A" text-anchor="middle">분기명·시작일·종료일</text>
  <text x="535" y="758" font-size="10" font-weight="500" fill="#64748B" text-anchor="middle">모달 입력</text>

  <line x1="620" y1="744" x2="660" y2="744" stroke="#64748B" stroke-width="1.5" marker-end="url(#arrow)" />

  <rect x="660" y="720" width="150" height="48" rx="8" fill="#B4E600" stroke="#84CC16" stroke-width="1.5" />
  <text x="735" y="749" font-size="12" font-weight="800" fill="#0F172A" text-anchor="middle">[ 생성 ]</text>

  <line x1="810" y1="744" x2="850" y2="744" stroke="#64748B" stroke-width="1.5" marker-end="url(#arrow)" />

  <rect x="850" y="720" width="200" height="48" rx="8" fill="#F1F5F9" stroke="#94A3B8" stroke-width="1.5" stroke-dasharray="4 2" />
  <text x="950" y="744" font-size="12" font-weight="700" fill="#475569" text-anchor="middle">이전 분기 자동 archive</text>
  <text x="950" y="758" font-size="10" font-weight="500" fill="#64748B" text-anchor="middle">셀렉터에서 읽기 전용</text>

  <line x1="1050" y1="744" x2="1090" y2="744" stroke="#64748B" stroke-width="1.5" marker-end="url(#arrow)" />

  <rect x="1090" y="720" width="180" height="48" rx="8" fill="#FFFFFF" stroke="#CBD5E1" stroke-width="1.5" />
  <text x="1180" y="744" font-size="12" font-weight="700" fill="#0F172A" text-anchor="middle">Objective·KR 입력</text>
  <text x="1180" y="758" font-size="10" font-weight="500" fill="#64748B" text-anchor="middle">"+ Objective 추가"</text>

  <!-- ─── 3-B: 멤버 관리 (분기 중 언제든) ─── -->
  <text x="260" y="810" font-size="13" font-weight="800" fill="#475569">B. 멤버 관리 (입사·퇴사 시)</text>
  <line x1="260" y1="818" x2="1520" y2="818" stroke="#E5E7EB" stroke-width="1" stroke-dasharray="3 3" />

  <rect x="260" y="830" width="170" height="48" rx="8" fill="#FFFFFF" stroke="#CBD5E1" stroke-width="1.5" />
  <text x="345" y="859" font-size="12" font-weight="700" fill="#0F172A" text-anchor="middle">[멤버 관리] 클릭</text>

  <line x1="430" y1="854" x2="470" y2="854" stroke="#64748B" stroke-width="1.5" marker-end="url(#arrow)" />

  <rect x="470" y="830" width="180" height="48" rx="8" fill="#FFFFFF" stroke="#CBD5E1" stroke-width="1.5" />
  <text x="560" y="853" font-size="12" font-weight="700" fill="#0F172A" text-anchor="middle">이름 추가 / ✕ 삭제</text>
  <text x="560" y="868" font-size="10" font-weight="500" fill="#64748B" text-anchor="middle">즉시 반영</text>

  <line x1="650" y1="854" x2="690" y2="854" stroke="#64748B" stroke-width="1.5" marker-end="url(#arrow)" />

  <rect x="690" y="830" width="220" height="48" rx="8" fill="#ECFCCB" stroke="#84CC16" stroke-width="1.5" />
  <text x="800" y="854" font-size="12" font-weight="700" fill="#365314" text-anchor="middle">KR Owner 드롭다운 갱신</text>
  <text x="800" y="868" font-size="10" font-weight="500" fill="#365314" text-anchor="middle">KPT 카드 자동 추가/제거</text>

  <!-- ─── 3-C: 분기 종료 회고 ─── -->
  <text x="260" y="920" font-size="13" font-weight="800" fill="#475569">C. 분기 종료 회고 (마지막 주)</text>
  <line x1="260" y1="928" x2="1520" y2="928" stroke="#E5E7EB" stroke-width="1" stroke-dasharray="3 3" />

  <rect x="260" y="940" width="180" height="48" rx="8" fill="#F1F5F9" stroke="#94A3B8" stroke-width="1.5" stroke-dasharray="4 2" />
  <text x="350" y="963" font-size="12" font-weight="700" fill="#475569" text-anchor="middle">점수표 자동 완성</text>
  <text x="350" y="978" font-size="10" font-weight="500" fill="#64748B" text-anchor="middle">진척도 기반 평가</text>

  <line x1="440" y1="964" x2="480" y2="964" stroke="#64748B" stroke-width="1.5" marker-end="url(#arrow)" />

  <rect x="480" y="940" width="200" height="48" rx="8" fill="#FFFFFF" stroke="#CBD5E1" stroke-width="1.5" />
  <text x="580" y="963" font-size="12" font-weight="700" fill="#0F172A" text-anchor="middle">멤버별 KPT 작성</text>
  <text x="580" y="978" font-size="10" font-weight="500" fill="#64748B" text-anchor="middle">Keep · Problem · Try</text>

  <line x1="680" y1="964" x2="720" y2="964" stroke="#64748B" stroke-width="1.5" marker-end="url(#arrow)" />

  <rect x="720" y="940" width="170" height="48" rx="8" fill="#0F172A" stroke="#0F172A" />
  <text x="805" y="964" font-size="12" font-weight="800" fill="#FFFFFF" text-anchor="middle">📄 PDF 다운로드</text>
  <text x="805" y="978" font-size="10" font-weight="500" fill="#CBD5E1" text-anchor="middle">3페이지 보고서</text>

  <line x1="890" y1="964" x2="930" y2="964" stroke="#64748B" stroke-width="1.5" marker-end="url(#arrow)" />

  <rect x="930" y="940" width="180" height="48" rx="8" fill="#FFFFFF" stroke="#CBD5E1" stroke-width="1.5" />
  <text x="1020" y="963" font-size="12" font-weight="700" fill="#0F172A" text-anchor="middle">상사에 분기 보고</text>
  <text x="1020" y="978" font-size="10" font-weight="500" fill="#64748B" text-anchor="middle">메일 첨부 or 인쇄</text>

  <line x1="1110" y1="964" x2="1150" y2="964" stroke="#64748B" stroke-width="1.5" marker-end="url(#arrow)" />

  <rect x="1150" y="940" width="200" height="48" rx="8" fill="#B4E600" stroke="#84CC16" stroke-width="1.5" />
  <text x="1250" y="963" font-size="12" font-weight="800" fill="#0F172A" text-anchor="middle">다음 분기 준비</text>
  <text x="1250" y="978" font-size="10" font-weight="500" fill="#365314" text-anchor="middle">Lane 3-A로 순환</text>

  <!-- 순환 화살표 (lane 3 끝 → lane 3 시작) -->
  <path d="M 1350,964 Q 1490,964 1490,830 Q 1490,720 1340,720" fill="none" stroke="#7AAA00" stroke-width="1.5" stroke-dasharray="4 3" marker-end="url(#arrow-lime)" />
  <text x="1505" y="870" font-size="11" font-weight="700" fill="#7AAA00" transform="rotate(-90 1505 870)">분기 순환</text>

  <!-- 범례 -->
  <rect x="40" y="1050" width="1520" height="30" fill="#FFFFFF" />
  <text x="60" y="1071" font-size="12" font-weight="700" fill="#475569">범례:</text>
  <rect x="120" y="1058" width="14" height="14" rx="3" fill="#FFFFFF" stroke="#CBD5E1" stroke-width="1.5" />
  <text x="140" y="1071" font-size="12" font-weight="500" fill="#64748B">일반 액션</text>

  <rect x="230" y="1058" width="14" height="14" rx="3" fill="#B4E600" stroke="#84CC16" />
  <text x="250" y="1071" font-size="12" font-weight="500" fill="#64748B">저장·확정</text>

  <polygon points="330,1057 346,1066 330,1075 314,1066" fill="#FEF3C7" stroke="#F59E0B" />
  <text x="360" y="1071" font-size="12" font-weight="500" fill="#64748B">분기점 (결정)</text>

  <rect x="460" y="1058" width="14" height="14" rx="3" fill="#F1F5F9" stroke="#94A3B8" stroke-dasharray="3 2" />
  <text x="480" y="1071" font-size="12" font-weight="500" fill="#64748B">시스템 자동</text>

  <rect x="590" y="1058" width="14" height="14" rx="3" fill="#0F172A" />
  <text x="610" y="1071" font-size="12" font-weight="500" fill="#64748B">PDF 출력</text>

  <rect x="690" y="1058" width="14" height="14" rx="3" fill="#FEE2E2" stroke="#FF5A4A" />
  <text x="710" y="1071" font-size="12" font-weight="500" fill="#64748B">위험 신호</text>

  <rect x="800" y="1058" width="14" height="14" rx="3" fill="#ECFCCB" stroke="#84CC16" />
  <text x="820" y="1071" font-size="12" font-weight="500" fill="#64748B">성공·갱신 완료</text>
</svg>
